<?xml version="1.0" encoding="UTF-8" standalone="no"?>
<svg
   xmlns:dc="http://purl.org/dc/elements/1.1/"
   xmlns:cc="http://creativecommons.org/ns#"
   xmlns:rdf="http://www.w3.org/1999/02/22-rdf-syntax-ns#"
   xmlns:svg="http://www.w3.org/2000/svg"
   xmlns="http://www.w3.org/2000/svg"
   version="1.1"
   id="svg2"
   viewBox="0 0 24 24"
   height="24"
   width="24">
  <defs
     id="defs4" />
  <metadata
     id="metadata7">
    <rdf:RDF>
      <cc:Work
         rdf:about="">
        <dc:format>image/svg+xml</dc:format>
        <dc:type
           rdf:resource="http://purl.org/dc/dcmitype/StillImage" />
        <dc:title></dc:title>
      </cc:Work>
    </rdf:RDF>
  </metadata>
  <path
     id="path3401"
     d="M 11.945312 1.4648438 A 0.54800605 0.52683955 0 0 0 11.539062 1.625 L 1.4414062 11.671875 A 0.54800605 0.52683955 0 0 0 1.8300781 12.564453 L 11.501953 12.632812 L 11.839844 13.402344 L 4.7421875 17.332031 A 0.50005 0.50005 0 0 0 4.546875 18.011719 L 6.9453125 22.347656 A 0.50005 0.50005 0 0 0 7.625 22.542969 L 14.244141 18.876953 L 15.708984 22.214844 A 0.54800605 0.52683955 0 0 0 16.720703 22.205078 L 19.261719 16.099609 L 22.623047 14.238281 A 0.50005 0.50005 0 0 0 22.818359 13.560547 L 21.390625 10.980469 L 22.673828 7.8945312 A 0.54800605 0.52683955 0 0 0 22.441406 7.2441406 L 12.207031 1.5351562 A 0.54800605 0.52683955 0 0 0 11.945312 1.4648438 z M 12.029297 2.6542969 L 21.480469 7.9277344 L 20.716797 9.765625 L 20.417969 9.2246094 A 0.50005 0.50005 0 0 0 19.738281 9.0292969 L 12.794922 12.873047 L 12.369141 11.904297 A 0.54800605 0.52683955 0 0 0 11.869141 11.582031 L 3.1152344 11.519531 L 12.029297 2.6542969 z M 19.785156 10.146484 L 21.701172 13.607422 L 20.798828 14.105469 L 20.388672 13.363281 A 0.50005 0.50005 0 0 0 19.699219 13.164062 A 0.50005 0.50005 0 0 0 19.513672 13.847656 L 19.923828 14.589844 L 18.892578 15.162109 L 18.027344 13.597656 A 0.50005 0.50005 0 0 0 17.335938 13.400391 A 0.50005 0.50005 0 0 0 17.152344 14.082031 L 18.017578 15.646484 L 16.984375 16.216797 L 16.574219 15.474609 A 0.50005 0.50005 0 0 0 15.882812 15.275391 A 0.50005 0.50005 0 0 0 15.699219 15.958984 L 16.111328 16.701172 L 15.078125 17.273438 L 14.212891 15.708984 A 0.50005 0.50005 0 0 0 13.523438 15.511719 A 0.50005 0.50005 0 0 0 13.337891 16.193359 L 14.203125 17.757812 L 13.171875 18.328125 L 12.759766 17.585938 A 0.50005 0.50005 0 0 0 12.070312 17.386719 A 0.50005 0.50005 0 0 0 11.884766 18.070312 L 12.296875 18.8125 L 11.263672 19.384766 L 10.396484 17.822266 A 0.50005 0.50005 0 0 0 9.7089844 17.623047 A 0.50005 0.50005 0 0 0 9.5214844 18.306641 L 10.388672 19.869141 L 9.3554688 20.441406 L 8.9433594 19.697266 A 0.50005 0.50005 0 0 0 8.2539062 19.5 A 0.50005 0.50005 0 0 0 8.0703125 20.181641 L 8.4804688 20.925781 L 7.578125 21.425781 L 5.6621094 17.964844 L 19.785156 10.146484 z M 17.726562 16.949219 L 16.199219 20.625 L 15.199219 18.349609 L 17.726562 16.949219 z "
     style="fill:#FFFFFF;"/>/>
</svg>
