<?xml version="1.0" encoding="UTF-8" standalone="no"?>
<svg
   xmlns:dc="http://purl.org/dc/elements/1.1/"
   xmlns:cc="http://creativecommons.org/ns#"
   xmlns:rdf="http://www.w3.org/1999/02/22-rdf-syntax-ns#"
   xmlns:svg="http://www.w3.org/2000/svg"
   xmlns="http://www.w3.org/2000/svg"
   version="1.1"
   id="svg2"
   viewBox="0 0 24 24"
   height="24"
   width="24">
  <defs
     id="defs4" />
  <metadata
     id="metadata7">
    <rdf:RDF>
      <cc:Work
         rdf:about="">
        <dc:format>image/svg+xml</dc:format>
        <dc:type
           rdf:resource="http://purl.org/dc/dcmitype/StillImage" />
        <dc:title></dc:title>
      </cc:Work>
    </rdf:RDF>
  </metadata>
  <path
     id="path5418"
     d="M 3.3945312 1.9394531 A 0.50005 0.50005 0 0 0 2.9433594 2.5683594 L 5.9785156 14.533203 A 0.50005 0.50005 0 0 0 6.7441406 14.824219 L 14.556641 9.53125 L 15.416016 11.421875 L 4.7421875 17.332031 A 0.50005 0.50005 0 0 0 4.546875 18.011719 L 6.9453125 22.347656 A 0.50005 0.50005 0 0 0 7.625 22.542969 L 17.888672 16.859375 L 20.115234 21.759766 A 0.50005 0.50005 0 1 0 21.025391 21.345703 L 18.765625 16.375 L 22.623047 14.238281 A 0.50005 0.50005 0 0 0 22.818359 13.560547 L 20.417969 9.2246094 A 0.50005 0.50005 0 0 0 19.738281 9.0292969 L 16.294922 10.935547 L 15.222656 8.578125 A 0.50005 0.50005 0 0 0 14.486328 8.3710938 L 6.7714844 13.597656 L 3.9121094 2.3222656 A 0.50005 0.50005 0 0 0 3.3945312 1.9394531 z M 19.785156 10.146484 L 21.701172 13.607422 L 20.798828 14.105469 L 20.388672 13.363281 A 0.50005 0.50005 0 0 0 19.699219 13.164062 A 0.50005 0.50005 0 0 0 19.513672 13.847656 L 19.923828 14.589844 L 18.892578 15.162109 L 18.027344 13.597656 A 0.50005 0.50005 0 0 0 17.335938 13.400391 A 0.50005 0.50005 0 0 0 17.152344 14.082031 L 18.017578 15.646484 L 16.984375 16.216797 L 16.574219 15.474609 A 0.50005 0.50005 0 0 0 15.882812 15.275391 A 0.50005 0.50005 0 0 0 15.699219 15.958984 L 16.111328 16.701172 L 15.078125 17.273438 L 14.212891 15.708984 A 0.50005 0.50005 0 0 0 13.523438 15.511719 A 0.50005 0.50005 0 0 0 13.337891 16.193359 L 14.203125 17.757812 L 13.171875 18.328125 L 12.759766 17.585938 A 0.50005 0.50005 0 0 0 12.070312 17.386719 A 0.50005 0.50005 0 0 0 11.884766 18.070312 L 12.296875 18.8125 L 11.263672 19.384766 L 10.396484 17.822266 A 0.50005 0.50005 0 0 0 9.7089844 17.623047 A 0.50005 0.50005 0 0 0 9.5214844 18.306641 L 10.388672 19.869141 L 9.3554688 20.441406 L 8.9433594 19.697266 A 0.50005 0.50005 0 0 0 8.2539062 19.5 A 0.50005 0.50005 0 0 0 8.0703125 20.181641 L 8.4804688 20.925781 L 7.578125 21.425781 L 5.6621094 17.964844 L 19.785156 10.146484 z "
     style="color:#000000;font-style:normal;font-variant:normal;font-weight:normal;font-stretch:normal;font-size:medium;line-height:normal;font-family:sans-serif;text-indent:0;text-align:start;text-decoration:none;text-decoration-line:none;text-decoration-style:solid;text-decoration-color:#000000;letter-spacing:normal;word-spacing:normal;text-transform:none;direction:ltr;block-progression:tb;writing-mode:lr-tb;baseline-shift:baseline;text-anchor:start;white-space:normal;clip-rule:nonzero;display:inline;overflow:visible;visibility:visible;opacity:1;isolation:auto;mix-blend-mode:normal;color-interpolation:sRGB;color-interpolation-filters:linearRGB;solid-color:#000000;solid-opacity:1;fill:#000000;fill-opacity:1;fill-rule:evenodd;stroke:none;stroke-width:1px;stroke-linecap:round;stroke-linejoin:round;stroke-miterlimit:4;stroke-dasharray:none;stroke-dashoffset:0;stroke-opacity:1;color-rendering:auto;image-rendering:auto;shape-rendering:auto;text-rendering:auto;enable-background:accumulate;fill:#FFFFFF;" />
</svg>
