<?xml version="1.0" encoding="UTF-8" standalone="no"?>
<svg
   xmlns:dc="http://purl.org/dc/elements/1.1/"
   xmlns:cc="http://creativecommons.org/ns#"
   xmlns:rdf="http://www.w3.org/1999/02/22-rdf-syntax-ns#"
   xmlns:svg="http://www.w3.org/2000/svg"
   xmlns="http://www.w3.org/2000/svg"
   xmlns:sodipodi="http://sodipodi.sourceforge.net/DTD/sodipodi-0.dtd"
   xmlns:inkscape="http://www.inkscape.org/namespaces/inkscape"
   viewBox="0 0 334.56 87.68"
   height="87.68"
   width="334.56"
   xml:space="preserve"
   id="svg2"
   version="1.1"
   inkscape:version="0.91 r13725"
   sodipodi:docname="sokigo.svg"><sodipodi:namedview
     pagecolor="#ffffff"
     bordercolor="#666666"
     borderopacity="1"
     objecttolerance="10"
     gridtolerance="10"
     guidetolerance="10"
     inkscape:pageopacity="0"
     inkscape:pageshadow="2"
     inkscape:window-width="1920"
     inkscape:window-height="1137"
     id="namedview4158"
     showgrid="false"
     inkscape:zoom="2.0205643"
     inkscape:cx="93.299577"
     inkscape:cy="85.07079"
     inkscape:window-x="1592"
     inkscape:window-y="-8"
     inkscape:window-maximized="1"
     inkscape:current-layer="svg2" /><metadata
     id="metadata8"><rdf:RDF><cc:Work
         rdf:about=""><dc:format>image/svg+xml</dc:format><dc:type
           rdf:resource="http://purl.org/dc/dcmitype/StillImage" /><dc:title></dc:title></cc:Work></rdf:RDF></metadata><defs
     id="defs6" /><path
     id="path14"
     style="fill:#53b5c9;fill-opacity:1;fill-rule:nonzero;stroke:none"
     d="m 41.317732,49.177334 c -4.435466,2.41 -10.348933,3.732934 -16.574533,3.732934 -6.224933,0 -12.137986,-1.322934 -16.5734125,-3.732934 -4.5124933,-2.337466 -7.23541186,-5.604133 -8.01405717,-9.260399 2.72396397,-1.5572 6.30260387,-1.479067 8.79219047,0.777066 2.5677062,2.334933 8.0932802,4.7464 15.7952792,4.7464 9.493733,0 15.9516,-3.5016 17.040667,-6.458266 l 0.0776,-0.0772 c 0.466666,-1.244667 -0.155734,-3.423867 -0.855734,-4.435867 -2.1792,-3.033867 -7.703066,-4.278667 -17.661999,-5.5224 -5.213467,-0.625067 -10.5828,-1.324 -14.7843599,-3.034933 C 1.47864,23.031602 0,18.050802 0,14.316402 0,10.114935 2.9567733,6.536802 8.3255198,4.0456021 c 4.4354132,-2.1 10.2714132,-3.18853326 16.4176792,-3.18853326 6.148,0 11.9828,1.08853326 16.418267,3.18853326 4.202133,1.8671999 6.924933,4.5146665 7.936933,7.5483999 -2.49,2.022 -6.070267,2.411467 -8.7156,0.5428 -2.566667,-1.709467 -7.780133,-3.8098667 -15.6396,-3.8098667 -10.814533,0 -16.5734125,3.7342667 -17.1952792,5.6785337 -0.3890666,1.244799 0.2338533,2.567733 1.1661466,3.422933 l -0.077093,-0.07547 c 2.1005329,2.1776 7.0796929,3.110933 15.6390259,4.200533 5.6032,0.700534 11.4396,1.401067 16.030267,3.346267 6.068266,2.6448 9.180133,7.0016 9.180133,13.15 0,4.436533 -2.878,8.402133 -8.168667,11.127599"
     inkscape:connector-curvature="0" /><path
     id="path16"
     style="fill:#53b5c9;fill-opacity:1;fill-rule:nonzero;stroke:none"
     d="m 87.857331,7.4701353 c -11.828133,0 -21.397999,8.5571997 -21.397999,19.1405327 0,10.504267 9.569866,19.140666 21.397999,19.140666 11.826533,0 21.396269,-8.636399 21.396269,-19.140666 0,-10.583333 -9.569736,-19.1405327 -21.396269,-19.1405327 z m 0,45.7514657 c -15.872933,0 -28.868266,-11.983333 -28.868266,-26.610933 0,-14.706666 12.995333,-26.61039914134 28.868266,-26.61039914134 15.950529,0 28.866669,11.90373314134 28.866669,26.61039914134 0,14.6276 -12.91614,26.610933 -28.866669,26.610933"
     inkscape:connector-curvature="0" /><path
     id="path18"
     style="fill:#53b5c9;fill-opacity:1;fill-rule:nonzero;stroke:none"
     d="m 179.82266,50.732134 c -1.4,2.178134 -4.35733,2.878534 -6.61333,1.399467 l -32.21333,-20.85 c -1.556,-1.014666 -2.724,-2.880266 -2.88,-4.980799 -0.0773,-2.102534 0.93466,-4.0468 2.41333,-5.059867 l 30.812,-19.7639995 c 2.02267,-1.32039998 4.98,-0.54333333 6.536,1.6337333 0.46667,0.7021333 0.77867,1.4010666 0.93333,2.1813333 l -32.368,20.8515999 34.08,22.098932 c 0,0.8552 -0.23333,1.710934 -0.7,2.4896 z m -50.65386,2.1 0,-51.97506516 c 4.0452,0 7.46986,3.26666656 7.46986,7.23546646 l 0,37.4259987 c 0,4.046934 -3.42466,7.3136 -7.46986,7.3136"
     inkscape:connector-curvature="0" /><path
     id="path20"
     style="fill:#53b5c9;fill-opacity:1;fill-rule:nonzero;stroke:none"
     d="m 198.24133,52.832134 c -4.04533,0 -7.46933,-3.266666 -7.46933,-7.3136 l 0,-44.66146516 c 4.04533,0 7.46933,3.26666656 7.46933,7.23546646 l 0,44.7395987"
     inkscape:connector-curvature="0" /><path
     id="path22"
     style="fill:#53b5c9;fill-opacity:1;fill-rule:nonzero;stroke:none"
     d="m 239.19999,52.910268 c -15.63866,0 -28.32266,-11.672 -28.32266,-26.066266 0,-14.395733 12.684,-26.06666649 28.32266,-26.06666649 11.04934,0 20.932,5.83599989 25.6,15.01826649 -2.95733,1.945333 -7.08133,1.557333 -9.64933,-1.0896 -3.88933,-4.124933 -9.72533,-6.6134667 -15.95067,-6.6134667 -11.59333,0 -21.008,8.4035997 -21.008,18.7514667 0,10.349066 9.41467,18.829199 21.008,18.829199 9.80534,0 18.12934,-6.1468 20.38667,-14.316133 0.0787,-0.466133 -0.38933,-0.8568 -0.856,-0.8568 -2.64533,0 -6.38,0 -9.804,0 -4.124,0 -7.392,-3.2672 -7.46933,-7.3124 l 18.208,0 c 4.12266,0 8.09066,3.188534 7.47066,7.3916 -1.792,12.6812 -13.77466,22.3308 -27.936,22.3308"
     inkscape:connector-curvature="0" /><path
     id="path24"
     style="fill:#53b5c9;fill-opacity:1;fill-rule:nonzero;stroke:none"
     d="m 305.69733,7.4701353 c -11.82667,0 -21.39734,8.5571997 -21.39734,19.1405327 0,10.504267 9.57067,19.140666 21.39734,19.140666 11.828,0 21.39866,-8.636399 21.39866,-19.140666 0,-10.583333 -9.57066,-19.1405327 -21.39866,-19.1405327 z m 0,45.7514657 c -15.87334,0 -28.86667,-11.983333 -28.86667,-26.610933 0,-14.706666 12.99333,-26.61039914134 28.86667,-26.61039914134 15.952,0 28.86799,11.90373314134 28.86799,26.61039914134 0,14.6276 -12.91599,26.610933 -28.86799,26.610933"
     inkscape:connector-curvature="0" /><path
     id="path26"
     style="fill:#696b6f;fill-opacity:1;fill-rule:nonzero;stroke:none"
     d="m 6.9984398,72.8112 0.089067,0 5.5786395,14.590155 2.88852,0 -6.6041462,-17.246421 -2.8697866,0 0.42708,1.127733 -6.11510521,16.118688 1.33281201,0 z m 54.1698252,-2.656266 -3.7552,0 0,0.15 1.952,1.738133 0,15.358288 1.406267,0 0,-13.734421 0.0912,0 10.960933,13.734421 1.340533,0 0,-17.246421 -1.401466,0 0,12.971426 -0.0636,0 z m 60.256795,0.854266 8.39267,0.1796 0,-1.033866 -11.2,0 0,17.246421 11.6292,0 0.42493,-1.007814 -9.2468,0.151042 0,-7.476556 6.71347,0 0,-1.003653 -6.71347,0 0,-7.055174"
     inkscape:connector-curvature="0" /><path
     id="path28"
     style="fill:#696b6f;fill-opacity:1;fill-rule:nonzero;stroke:none"
     d="m 25.991199,86.393541 c -1.436,0 -2.626133,-0.148434 -3.2376,-0.272394 l 0,-14.77608 c 0.7048,-0.124933 1.677067,-0.2172 2.931334,-0.2172 3.9692,0 6.561466,2.599067 6.561466,8.12244 0,5.191666 -2.499066,7.143234 -6.2552,7.143234 m 0.5812,-16.238607 -6.624533,0 0,17.251629 6.836533,0 c 4.547334,0 8.484933,-3.24115 8.484933,-8.610936 0,-5.041627 -3.725066,-8.640693 -8.696933,-8.640693"
     inkscape:connector-curvature="0" /><path
     id="path30"
     style="fill:#696b6f;fill-opacity:1;fill-rule:nonzero;stroke:none"
     d="m 224.54799,78.70188 c -1.1,0 -2.016,-0.151053 -2.80933,-0.39428 l 0,-6.962533 c 0,0 1.09867,-0.212 2.44,-0.212 2.44667,0 3.664,1.464667 3.664,3.873493 0,2.629174 -1.188,3.69532 -3.29467,3.69532 m 0.39334,-8.546946 -6.01067,0 0,17.246421 2.808,0 0,-8.151048 c 0.91867,0.276053 2.228,0.427093 3.26533,0.427093 3.32534,0 5.80134,-1.739586 5.80134,-4.913026 0,-2.963574 -2.352,-4.60944 -5.864,-4.60944"
     inkscape:connector-curvature="0" /><path
     id="path32"
     style="fill:#696b6f;fill-opacity:1;fill-rule:nonzero;stroke:none"
     d="m 212.33466,81.295627 c 0,3.483333 -1.55733,5.006773 -4.516,5.006773 -3.512,0 -4.91733,-1.467707 -4.91733,-5.24636 l 0,-10.901106 -2.80667,0 0,11.205799 c 0,4.05624 3.29467,6.314059 7.324,6.314059 3.85067,0 6.04667,-2.346352 6.04667,-6.225525 l 0,-11.294333 -1.13067,0 0,11.140693"
     inkscape:connector-curvature="0" /><path
     id="path34"
     style="fill:#696b6f;fill-opacity:1;fill-rule:nonzero;stroke:none"
     d="m 167.27466,78.57844 c -0.67333,0 -1.16,-0.02761 -1.92266,-0.152613 l 0,-7.08076 c 0,0 1.192,-0.212 2.44,-0.212 2.352,0 3.576,1.130267 3.576,3.69276 0,2.290107 -1.37867,3.752613 -4.09334,3.752613 m 3.96934,2.93072 -1.95467,-2.322906 c 2.65867,-0.239587 5.036,-1.890627 5.036,-4.607814 0,-2.928706 -2.44,-4.423506 -5.772,-4.423506 l -6.00933,0 0,17.246421 2.808,0 0,-8.636981 c 0.33733,0.117186 0.85466,0.610933 1.28,1.09636 l 1.59066,1.984373 c 4,5.005205 5.372,5.834893 7.388,5.834893 0.60667,0 1.79734,-0.123958 2.58934,-0.278645 l 0,-0.151043 c -2.19734,-0.3375 -2.92667,-0.947912 -6.956,-5.741152"
     inkscape:connector-curvature="0" /><path
     id="path36"
     style="fill:#696b6f;fill-opacity:1;fill-rule:nonzero;stroke:none"
     d="m 151.98133,86.640937 c -4.12267,0 -6.62667,-2.904684 -6.62667,-8.308857 0,-4.90888 2.53334,-7.447946 6.44,-7.447946 1.528,0 3.296,0.525066 4.24267,1.158933 l 1.46533,3.239533 0.184,0 0,-4.3698 c -1.15733,-0.515066 -3.60266,-0.9708 -5.70533,-0.9708 -5.408,0 -9.648,3.132267 -9.648,8.79008 0,5.735413 4.27067,8.878649 9.42933,8.878649 2.47867,0 4.548,-0.42448 5.924,-1.060937 l 0,-6.811458 -2.804,0 0,6.226559 c -0.76666,0.367187 -1.74133,0.676044 -2.90133,0.676044"
     inkscape:connector-curvature="0" /><path
     id="path38"
     style="fill:#696b6f;fill-opacity:1;fill-rule:nonzero;stroke:none"
     d="m 9.2703064,82.136773 c 0,-1.171879 -0.9453066,-2.120839 -2.1161332,-2.120839 -1.1651067,0 -2.1140667,0.94896 -2.1140667,2.120839 0,1.166667 0.94896,2.110934 2.1140667,2.110934 1.1708266,0 2.1161332,-0.944267 2.1161332,-2.110934"
     inkscape:connector-curvature="0" /><path
     id="path40"
     style="fill:#696b6f;fill-opacity:1;fill-rule:nonzero;stroke:none"
     d="m 94.315064,78.775307 c 0,-5.70104 -4.333866,-8.91824 -8.916133,-8.91824 -4.394266,0 -8.636933,3.2172 -8.636933,8.91824 0,5.6974 4.336933,8.878651 8.823467,8.878651 4.486933,0 8.729599,-3.181251 8.729599,-8.878651 m -3.145733,0.64532 c -0.133867,4.855733 -2.6152,7.347914 -5.7292,7.267185 -3.1136,-0.09114 -5.895333,-3.162505 -5.742266,-8.567705 0.1376,-4.910373 2.710933,-7.40264 5.701066,-7.317707 3.114133,0.08693 5.926133,3.221334 5.7704,8.618227"
     inkscape:connector-curvature="0" /><path
     id="path42"
     style="fill:#696b6f;fill-opacity:1;fill-rule:nonzero;stroke:none"
     d="m 45.604666,86.393541 c -1.434934,0 -2.625467,-0.148434 -3.237467,-0.272394 l 0,-14.77608 c 0.704133,-0.124933 1.6792,-0.2172 2.9328,-0.2172 3.9688,0 6.5604,2.599067 6.5604,8.12244 0,5.191666 -2.497867,7.143234 -6.255733,7.143234 m 0.5808,-16.238607 -6.624,0 0,17.251629 6.8364,0 c 4.549066,0 8.487066,-3.24115 8.487066,-8.610936 0,-5.041627 -3.726133,-8.640693 -8.699466,-8.640693"
     inkscape:connector-curvature="0" /><path
     id="path44"
     style="fill:#696b6f;fill-opacity:1;fill-rule:nonzero;stroke:none"
     d="m 104.67653,86.393541 c -1.43533,0 -2.6276,-0.148434 -3.23693,-0.272394 l 0,-14.77608 c 0.70413,-0.124933 1.676,-0.2172 2.93066,-0.2172 3.96774,0 6.55947,2.599067 6.55947,8.12244 0,5.191666 -2.498,7.143234 -6.2532,7.143234 m 0.5756,-16.238607 -6.621866,0 0,17.251629 6.837996,0 c 4.54894,0 8.48534,-3.24115 8.48534,-8.610936 0,-5.041627 -3.72387,-8.640693 -8.70147,-8.640693"
     inkscape:connector-curvature="0" /><path
     id="path46"
     style="fill:#696b6f;fill-opacity:1;fill-rule:nonzero;stroke:none"
     d="m 195.79466,78.775307 c 0,-5.70104 -4.332,-8.91824 -8.916,-8.91824 -4.39466,0 -8.63733,3.2172 -8.63733,8.91824 0,5.6974 4.33733,8.878651 8.82267,8.878651 4.49333,0 8.73066,-3.181251 8.73066,-8.878651 m -3.14,0.64532 c -0.14,4.855733 -2.62133,7.347914 -5.72933,7.267185 -3.11467,-0.09114 -5.9,-3.162505 -5.74667,-8.567705 0.136,-4.910373 2.71067,-7.40264 5.7,-7.317707 3.11334,0.08693 5.92667,3.221334 5.776,8.618227"
     inkscape:connector-curvature="0" /></svg>